<svg xmlns="http://www.w3.org/2000/svg" version="1.1" xmlns:xlink="http://www.w3.org/1999/xlink" width="37" height="37"><svg width="37" height="37" viewBox="0 0 37 37" fill="none" xmlns="http://www.w3.org/2000/svg">
<rect y="0.205566" width="36.589" height="36.589" rx="5.22699" fill="#263796"></rect>
<rect y="0.205566" width="36.589" height="36.589" rx="5.22699" fill="url(#paint0_linear_171_2042)"></rect>
<ellipse cx="24.7321" cy="14.8977" rx="4.86894" ry="4.86894" transform="rotate(180 24.7321 14.8977)" fill="#263796"></ellipse>
<circle cx="24.7311" cy="14.8978" r="3.72331" transform="rotate(-90 24.7311 14.8978)" fill="#263796"></circle>
<ellipse cx="12.1286" cy="14.8977" rx="4.86894" ry="4.86894" transform="rotate(180 12.1286 14.8977)" fill="#263796"></ellipse>
<circle cx="12.131" cy="14.8978" r="3.72331" transform="rotate(-90 12.131 14.8978)" fill="#263796"></circle>
<circle cx="18.4315" cy="8.59652" r="3.72331" transform="rotate(180 18.4315 8.59652)" fill="#263796"></circle>
<ellipse cx="18.4318" cy="21.1984" rx="4.86894" ry="4.86894" transform="rotate(180 18.4318 21.1984)" fill="#263796"></ellipse>
<path d="M19.98 25.8144C20.0998 25.7742 20.2294 25.7676 20.3493 25.8077C20.4786 25.851 20.6066 25.8986 20.7328 25.9509C21.4625 26.2531 22.1256 26.6961 22.684 27.2546C23.2425 27.8131 23.6855 28.4761 23.9877 29.2058C24.2167 29.7587 24.3617 30.3416 24.4184 30.9353C24.4485 31.2502 24.1889 31.5075 23.8725 31.5075H12.9897C12.6733 31.5075 12.4137 31.2502 12.4438 30.9353C12.5005 30.3416 12.6454 29.7587 12.8744 29.2058C13.1767 28.4761 13.6197 27.8131 14.1782 27.2546C14.7366 26.6961 15.3997 26.2531 16.1293 25.9509C16.2553 25.8987 16.3829 25.8511 16.5118 25.8079C16.6317 25.7676 16.7614 25.7743 16.8813 25.8145C17.3681 25.9778 17.8893 26.0661 18.4311 26.0661C18.9726 26.0661 19.4934 25.9776 19.98 25.8144Z" fill="white"></path>
<path d="M26.5047 19.4885C26.5294 19.4789 26.5567 19.4778 26.5819 19.4859C26.7348 19.5351 26.8862 19.5895 27.035 19.6512C27.7647 19.9534 28.4277 20.3964 28.9862 20.9549C29.5447 21.5134 29.9877 22.1764 30.2899 22.9061C30.5189 23.4589 30.6638 24.0419 30.7206 24.6355C30.7507 24.9505 30.491 25.2078 30.1747 25.2078H21.5601C21.4477 25.2078 21.3995 25.0583 21.487 24.9878C22.5928 24.0953 23.3007 22.7297 23.3007 21.198C23.3006 20.6911 23.2227 20.2024 23.0788 19.7429C23.0493 19.6489 23.1417 19.5574 23.2354 19.5877C23.7068 19.74 24.2093 19.823 24.7313 19.823C25.3571 19.823 25.9552 19.7037 26.5047 19.4885Z" fill="white"></path>
<path d="M10.2767 19.4864C10.302 19.4782 10.3293 19.4794 10.354 19.489C10.9038 19.7044 11.5021 19.8235 12.1283 19.8235C12.6514 19.8235 13.1548 19.7396 13.6269 19.5865C13.7207 19.5561 13.8131 19.6477 13.7837 19.7417C13.6397 20.2014 13.562 20.6904 13.5619 21.1975C13.5619 22.7288 14.2695 24.0947 15.3749 24.9873C15.4623 25.0579 15.4141 25.2073 15.3017 25.2073H6.68691C6.37069 25.2073 6.11117 24.9508 6.14101 24.636C6.19773 24.0423 6.34263 23.4585 6.57168 22.9056C6.87393 22.1759 7.31696 21.5128 7.87539 20.9544C8.43382 20.396 9.09696 19.9529 9.82656 19.6507C9.97434 19.5895 10.1249 19.5353 10.2767 19.4864Z" fill="white"></path>
<circle cx="18.4309" cy="21.198" r="4.29612" transform="rotate(180 18.4309 21.198)" fill="white"></circle>
<circle cx="18.4309" cy="8.59645" r="4.29612" transform="rotate(180 18.4309 8.59645)" fill="white"></circle>
<circle cx="12.156" cy="14.8972" r="4.29612" transform="rotate(180 12.156 14.8972)" fill="white"></circle>
<circle cx="24.7556" cy="14.8972" r="4.29612" transform="rotate(180 24.7556 14.8972)" fill="white"></circle>
<defs>
<linearGradient id="SvgjsLinearGradient1006" x1="20.2637" y1="42.6212" x2="40.0417" y2="13.039" gradientUnits="userSpaceOnUse">
<stop stop-color="#1A2B87"></stop>
<stop offset="1" stop-color="#4155C7"></stop>
</linearGradient>
</defs>
</svg><style>@media (prefers-color-scheme: light) { :root { filter: none; } }
@media (prefers-color-scheme: dark) { :root { filter: none; } }
</style></svg>